<svg xmlns="http://www.w3.org/2000/svg" xmlns:xlink="http://www.w3.org/1999/xlink" viewBox="0 0 1200 1200"><defs><style>.cls-1{fill:url(#linear-gradient);}.cls-2{fill:#fff;}</style><linearGradient id="linear-gradient" x1="1024.26" y1="1024.26" x2="175.74" y2="175.74" gradientUnits="userSpaceOnUse"><stop offset="0" stop-color="#6a26ff"/><stop offset="1" stop-color="#f5bcd1"/></linearGradient></defs><g id="Layer_2" data-name="Layer 2"><g id="Layer_1-2" data-name="Layer 1"><circle class="cls-1" cx="600" cy="600" r="600"/><path class="cls-2" d="M644.87,856.27H555.13c-65.61,0-119-53.44-119-119.11h51.32A67.8,67.8,0,0,0,555.13,805h89.74a67.83,67.83,0,0,0,43.35-119.86L483.28,557.6a27.08,27.08,0,0,1-2.48-1.76,118.56,118.56,0,0,1-44.66-93c0-65.67,53.38-119.11,119-119.11h89.74c65.61,0,119,53.44,119,119.11H712.54a67.8,67.8,0,0,0-67.67-67.79H555.13a67.83,67.83,0,0,0-43.35,119.86l205,127.49a26.78,26.78,0,0,1,2.49,1.77,118.56,118.56,0,0,1,44.64,93C763.86,802.83,710.48,856.27,644.87,856.27Z"/><path class="cls-2" d="M737,764V712.7a67.82,67.82,0,0,0,67.69-67.79V555.08A67.67,67.67,0,0,0,685,511.64L557.68,716.82a26.57,26.57,0,0,1-1.75,2.49A118.38,118.38,0,0,1,463,764c-65.61,0-119-53.44-119-119.11V555.08C344,489.41,397.39,436,463,436v51.32a67.82,67.82,0,0,0-67.69,67.79v89.83A67.67,67.67,0,0,0,515,688.36L642.32,483.18a24.82,24.82,0,0,1,1.75-2.49A118.38,118.38,0,0,1,737,436c65.61,0,119,53.44,119,119.11v89.83C856,710.58,802.61,764,737,764Z"/></g></g></svg>